<?xml version="1.0" standalone="no"?>
 <!DOCTYPE svg PUBLIC "-//W3C//DTD SVG 1.1//EN" 
 "http://www.w3.org/Graphics/SVG/1.1/DTD/svg11.dtd"> 
<svg
  xmlns:svg="http://www.w3.org/2000/svg"
  xmlns="http://www.w3.org/2000/svg"
  xmlns:xlink="http://www.w3.org/1999/xlink"
  version="1.1"
  width="325.6534mm" height="182.0164mm" viewBox="0.0000 0.0000 325.6534 182.0164">
<title>SVG Image created as butterfly-Edge_Cuts.svg date 2024/10/09 21:00:57 </title>
  <desc>Image generated by PCBNEW </desc>
<g style="fill:#000000; fill-opacity:1.0000;stroke:#000000; stroke-opacity:1.0000;
stroke-linecap:round; stroke-linejoin:round;"
 transform="translate(0 0) scale(1 1)">
</g>
<g style="fill:none; 
stroke:#D0D2CD; stroke-width:0.0500; stroke-opacity:1; 
stroke-linecap:round; stroke-linejoin:round;">
<circle cx="185.9245" cy="137.3490" r="1.2100" /> 
<circle cx="250.4245" cy="137.3490" r="1.2273" /> 
<circle cx="293.4245" cy="87.6970" r="1.1764" /> 
<circle cx="239.6745" cy="106.3165" r="1.3050" /> 
<circle cx="196.6745" cy="106.3165" r="1.1341" /> 
<circle cx="142.9245" cy="75.2840" r="1.8452" /> 
<circle cx="142.9245" cy="87.6970" r="1.3008" /> 
<path style="fill:none; 
stroke:#D0D2CD; stroke-width:0.0500; stroke-opacity:1; 
stroke-linecap:round; stroke-linejoin:round;fill:none"
d="M 293.7045,63.5215
293.9705,63.5474
294.2348,63.5906
294.4965,63.6510
294.7547,63.7287
295.0086,63.8237
295.2572,63.9359
295.4998,64.0654
302.1254,67.8907
302.2436,67.9616
302.3588,68.0361
302.4711,68.1140
302.5804,68.1953
302.6866,68.2799
302.7896,68.3677
302.8894,68.4586
302.9860,68.5525
303.0792,68.6493
303.1692,68.7489
303.2557,68.8512
303.3387,68.9562
303.4182,69.0637
303.4941,69.1736
303.5664,69.2859
303.6350,69.4004
303.6999,69.5171
303.7610,69.6359
303.8183,69.7566
303.8716,69.8792
303.9210,70.0036
303.9663,70.1296
304.0077,70.2573
304.0448,70.3865
304.0779,70.5171
304.1067,70.6490
304.1312,70.7821
304.1513,70.9163
304.1671,71.0516
304.1785,71.1878
304.1853,71.3248
304.1876,71.4626
304.1876,79.1131
304.1968,79.3880
304.2239,79.6595
304.2686,79.9268
304.3304,80.1893
304.4089,80.4461
304.5036,80.6966
304.6142,80.9399
304.7402,81.1754
304.8811,81.4022
305.0366,81.6196
305.2061,81.8269
305.3893,82.0233
305.5857,82.2081
305.7948,82.3804
306.0164,82.5397
306.2498,82.6850
312.8754,86.5103
312.9936,86.5811
313.1089,86.6556
313.2211,86.7335
313.3304,86.8148
313.4366,86.8994
313.5396,86.9872
313.6394,87.0781
313.7360,87.1720
313.8293,87.2688
313.9192,87.3684
314.0057,87.4707
314.0887,87.5757
314.1682,87.6832
314.2441,87.7931
314.3164,87.9054
314.3851,88.0199
314.4499,88.1366
314.5110,88.2554
314.5683,88.3761
314.6216,88.4987
314.6710,88.6231
314.7164,88.7491
314.7577,88.8768
314.7949,89.0060
314.8279,89.1366
314.8567,89.2685
314.8812,89.4016
314.9014,89.5358
314.9171,89.6711
314.9285,89.8073
314.9353,89.9443
314.9376,90.0821
314.9376,97.7326
314.9285,98.0075
314.9014,98.2790
314.8567,98.5463
314.7949,98.8088
314.7164,99.0656
314.6216,99.3161
314.5110,99.5594
314.3851,99.7949
314.2441,100.0217
314.0887,100.2391
313.9192,100.4464
313.7360,100.6428
313.5396,100.8276
313.3304,100.9999
313.1089,101.1592
312.8754,101.3045
306.2498,105.1298
306.1317,105.2007
306.0164,105.2752
305.9041,105.3531
305.7948,105.4344
305.6887,105.5190
305.5857,105.6068
305.4858,105.6977
305.3893,105.7916
305.2960,105.8884
305.2061,105.9880
305.1196,106.0903
305.0366,106.1953
304.9570,106.3027
304.8811,106.4127
304.8088,106.5250
304.7402,106.6395
304.6753,106.7562
304.6142,106.8749
304.5570,106.9957
304.5036,107.1183
304.4543,107.2427
304.4089,107.3687
304.3676,107.4964
304.3304,107.6256
304.2974,107.7562
304.2686,107.8881
304.2441,108.0212
304.2239,108.1554
304.2081,108.2907
304.1968,108.4269
304.1899,108.5639
304.1876,108.7017
304.1876,116.3522
304.1785,116.6271
304.1513,116.8985
304.1067,117.1659
304.0448,117.4284
303.9663,117.6852
303.8716,117.9357
303.7610,118.1790
303.6350,118.4145
303.4941,118.6413
303.3387,118.8587
303.1692,119.0660
302.9860,119.2624
302.7896,119.4472
302.5804,119.6195
302.3588,119.7788
302.1254,119.9241
295.4998,123.7494
295.2572,123.8789
295.0086,123.9911
294.7547,124.0861
294.4965,124.1638
294.2348,124.2242
293.9705,124.2674
293.7045,124.2933
293.4376,124.3019
293.1707,124.2933
292.9047,124.2674
292.6404,124.2242
292.3788,124.1638
292.1205,124.0861
291.8667,123.9911
291.6180,123.8789
291.3754,123.7494
284.7498,119.9241
284.5072,119.7946
284.2586,119.6823
284.0047,119.5874
283.7465,119.5097
283.4848,119.4492
283.2205,119.4061
282.9545,119.3802
282.6876,119.3715
282.4207,119.3802
282.1547,119.4061
281.8904,119.4492
281.6288,119.5097
281.3705,119.5874
281.1167,119.6823
280.8680,119.7946
280.6254,119.9241
273.9998,123.7494
273.8816,123.8202
273.7664,123.8947
273.6541,123.9726
273.5448,124.0539
273.4387,124.1385
273.3356,124.2263
273.2358,124.3172
273.1393,124.4111
273.0460,124.5079
272.9561,124.6075
272.8696,124.7098
272.7865,124.8148
272.7070,124.9223
272.6311,125.0322
272.5588,125.1445
272.4902,125.2590
272.4253,125.3757
272.3642,125.4945
272.3070,125.6152
272.2536,125.7378
272.2043,125.8622
272.1589,125.9883
272.1176,126.1159
272.0804,126.2451
272.0474,126.3757
272.0186,126.5076
271.9941,126.6407
271.9739,126.7749
271.9581,126.9102
271.9468,127.0464
271.9399,127.1834
271.9376,127.3212
271.9376,134.9717
271.9285,135.2466
271.9013,135.5180
271.8567,135.7854
271.7948,136.0479
271.7163,136.3047
271.6216,136.5552
271.5110,136.7985
271.3850,137.0339
271.2441,137.2608
271.0887,137.4782
270.9192,137.6855
270.7360,137.8819
270.5396,138.0667
270.3304,138.2390
270.1088,138.3983
269.8754,138.5436
263.2498,142.3689
263.1316,142.4398
263.0164,142.5143
262.9041,142.5922
262.7948,142.6735
262.6887,142.7581
262.5856,142.8459
262.4858,142.9368
262.3892,143.0306
262.2960,143.1274
262.2061,143.2270
262.1196,143.3294
262.0365,143.4343
261.9570,143.5418
261.8811,143.6518
261.8088,143.7641
261.7402,143.8786
261.6753,143.9953
261.6142,144.1140
261.5570,144.2348
261.5036,144.3574
261.4542,144.4818
261.4089,144.6078
261.3676,144.7355
261.3304,144.8647
261.2974,144.9952
261.2686,145.1271
261.2441,145.2603
261.2239,145.3945
261.2081,145.5298
261.1967,145.6660
261.1899,145.8030
261.1876,145.9408
261.1876,147.3848
261.1876,153.5913
261.1785,153.8662
261.1513,154.1376
261.1067,154.4050
261.0448,154.6675
260.9663,154.9243
260.8716,155.1748
260.7610,155.4181
260.6350,155.6535
260.4941,155.8804
260.3387,156.0978
260.1692,156.3051
259.9860,156.5015
259.7896,156.6862
259.5804,156.8586
259.3588,157.0179
259.1254,157.1632
252.4998,160.9884
252.3816,161.0593
252.2664,161.1338
252.1541,161.2117
252.0448,161.2930
251.9387,161.3776
251.8356,161.4654
251.7358,161.5563
251.6392,161.6501
251.5460,161.7469
251.4561,161.8465
251.3696,161.9489
251.2865,162.0538
251.2070,162.1613
251.1311,162.2713
251.0588,162.3835
250.9902,162.4981
250.9253,162.6148
250.8642,162.7335
250.8070,162.8543
250.7536,162.9769
250.7042,163.1012
250.6589,163.2273
250.6176,163.3550
250.5804,163.4842
250.5474,163.6147
250.5186,163.7466
250.4940,163.8797
250.4739,164.0140
250.4581,164.1492
250.4467,164.2855
250.4399,164.4225
250.4376,164.5603
250.4376,172.2108
250.4285,172.4857
250.4013,172.7571
250.3566,173.0245
250.2948,173.2869
250.2163,173.5438
250.1216,173.7943
250.0110,174.0376
249.8850,174.2730
249.7441,174.4998
249.5887,174.7173
249.4191,174.9246
249.2360,175.1210
249.0396,175.3057
248.8304,175.4781
248.6088,175.6374
248.3754,175.7827
241.7498,179.6080
241.5072,179.7375
241.2586,179.8498
241.0047,179.9447
240.7465,180.0225
240.4848,180.0829
240.2205,180.1261
239.9545,180.1520
239.6876,180.1606
239.4207,180.1520
239.1547,180.1261
238.8904,180.0829
238.6287,180.0225
238.3705,179.9447
238.1167,179.8498
237.8680,179.7375
237.6254,179.6080
230.9998,175.7827
230.7572,175.6532
230.5086,175.5409
230.2547,175.4460
229.9965,175.3683
229.7348,175.3078
229.4705,175.2647
229.2045,175.2388
228.9376,175.2301
228.6707,175.2388
228.4047,175.2647
228.1404,175.3078
227.8787,175.3683
227.6205,175.4460
227.3667,175.5409
227.1180,175.6532
226.8754,175.7827
220.2498,179.6080
220.0072,179.7375
219.7586,179.8498
219.5047,179.9447
219.2465,180.0225
218.9848,180.0829
218.7205,180.1261
218.4545,180.1520
218.1876,180.1606
217.9207,180.1520
217.6547,180.1261
217.3904,180.0829
217.1287,180.0225
216.8705,179.9447
216.6167,179.8498
216.3680,179.7375
216.1254,179.6080
209.4998,175.7827
209.2572,175.6532
209.0086,175.5409
208.7547,175.4460
208.4965,175.3683
208.2348,175.3078
207.9705,175.2647
207.7045,175.2388
207.4376,175.2301
207.1707,175.2388
206.9047,175.2647
206.6404,175.3078
206.3787,175.3683
206.1205,175.4460
205.8667,175.5409
205.6180,175.6532
205.3754,175.7827
198.7498,179.6080
198.5072,179.7375
198.2586,179.8498
198.0047,179.9447
197.7465,180.0225
197.4848,180.0829
197.2205,180.1261
196.9545,180.1520
196.6876,180.1606
196.4207,180.1520
196.1547,180.1261
195.8904,180.0829
195.6287,180.0225
195.3705,179.9447
195.1167,179.8498
194.8680,179.7375
194.6254,179.6080
187.9998,175.7827
187.8816,175.7118
187.7664,175.6374
187.6541,175.5594
187.5448,175.4781
187.4387,175.3935
187.3357,175.3057
187.2358,175.2149
187.1393,175.1210
187.0460,175.0242
186.9561,174.9246
186.8696,174.8222
186.7865,174.7173
186.7070,174.6098
186.6311,174.4998
186.5588,174.3876
186.4902,174.2730
186.4253,174.1563
186.3642,174.0376
186.3070,173.9169
186.2536,173.7943
186.2043,173.6699
186.1589,173.5438
186.1176,173.4161
186.0804,173.2869
186.0474,173.1564
186.0186,173.0245
185.9941,172.8914
185.9739,172.7571
185.9581,172.6219
185.9468,172.4857
185.9399,172.3486
185.9376,172.2108
185.9376,164.5603
185.9285,164.2855
185.9014,164.0140
185.8567,163.7466
185.7949,163.4842
185.7164,163.2273
185.6216,162.9769
185.5110,162.7335
185.3851,162.4981
185.2441,162.2713
185.0887,162.0538
184.9192,161.8466
184.7360,161.6501
184.5396,161.4654
184.3304,161.2930
184.1089,161.1338
183.8754,160.9884
177.2499,157.1632
177.1317,157.0923
177.0164,157.0178
176.9041,156.9399
176.7949,156.8586
176.6887,156.7740
176.5857,156.6862
176.4859,156.5954
176.3893,156.5015
176.2960,156.4047
176.2061,156.3051
176.1196,156.2027
176.0366,156.0978
175.9571,155.9903
175.8811,155.8803
175.8088,155.7681
175.7402,155.6535
175.6753,155.5368
175.6142,155.4181
175.5570,155.2974
175.5037,155.1748
175.4543,155.0504
175.4089,154.9243
175.3676,154.7966
175.3304,154.6675
175.2974,154.5369
175.2686,154.4050
175.2441,154.2719
175.2239,154.1376
175.2081,154.0024
175.1968,153.8662
175.1899,153.7291
175.1876,153.5913
175.1876,145.9408
175.1785,145.6660
175.1514,145.3945
175.1067,145.1271
175.0449,144.8647
174.9664,144.6078
174.8716,144.3574
174.7610,144.1140
174.6351,143.8786
174.4941,143.6518
174.3387,143.4343
174.1692,143.2271
173.9860,143.0306
173.7896,142.8459
173.5804,142.6735
173.3589,142.5143
173.1254,142.3689
166.4999,138.5436
166.3817,138.4727
166.2664,138.3983
166.1541,138.3203
166.0449,138.2390
165.9387,138.1544
165.8357,138.0667
165.7359,137.9758
165.6393,137.8819
165.5460,137.7851
165.4561,137.6855
165.3696,137.5832
165.2866,137.4782
165.2071,137.3707
165.1311,137.2608
165.0588,137.1485
164.9902,137.0340
164.9253,136.9173
164.8642,136.7985
164.8070,136.6778
164.7537,136.5552
164.7043,136.4308
164.6589,136.3047
164.6176,136.1770
164.5804,136.0479
164.5474,135.9173
164.5186,135.7854
164.4941,135.6523
164.4739,135.5180
164.4581,135.3828
164.4468,135.2466
164.4399,135.1095
164.4376,134.9717
164.4376,127.3212
164.4285,127.0464
164.4014,126.7749
164.3567,126.5076
164.2949,126.2451
164.2164,125.9882
164.1216,125.7378
164.0110,125.4944
163.8851,125.2590
163.7441,125.0322
163.5887,124.8148
163.4192,124.6075
163.2360,124.4111
163.0396,124.2263
162.8304,124.0539
162.6089,123.8947
162.3754,123.7493
155.7499,119.9241
155.5073,119.7946
155.2586,119.6823
155.0047,119.5874
154.7465,119.5097
154.4848,119.4492
154.2205,119.4061
153.9545,119.3802
153.6876,119.3715
153.4208,119.3802
153.1547,119.4061
152.8905,119.4492
152.6288,119.5097
152.3706,119.5874
152.1167,119.6823
151.8680,119.7946
151.6254,119.9241
144.9999,123.7493
144.7573,123.8789
144.5086,123.9911
144.2547,124.0861
143.9965,124.1638
143.7348,124.2242
143.4705,124.2674
143.2045,124.2933
142.9376,124.3019
142.6708,124.2933
142.4047,124.2674
142.1405,124.2242
141.8788,124.1638
141.6206,124.0861
141.3667,123.9911
141.1180,123.8789
140.8754,123.7493
134.2499,119.9241
134.1317,119.8532
134.0164,119.7788
133.9041,119.7008
133.7949,119.6195
133.6887,119.5349
133.5857,119.4472
133.4859,119.3563
133.3893,119.2624
133.2960,119.1656
133.2061,119.0660
133.1196,118.9636
133.0366,118.8587
132.9571,118.7512
132.8811,118.6413
132.8088,118.5290
132.7402,118.4144
132.6753,118.2978
132.6142,118.1790
132.5570,118.0583
132.5037,117.9357
132.4543,117.8113
132.4089,117.6852
132.3676,117.5575
132.3304,117.4284
132.2974,117.2978
132.2686,117.1659
132.2441,117.0328
132.2239,116.8985
132.2081,116.7633
132.1968,116.6271
132.1899,116.4900
132.1876,116.3522
132.1876,108.7017
132.1785,108.4269
132.1514,108.1554
132.1067,107.8881
132.0449,107.6256
131.9664,107.3687
131.8716,107.1183
131.7610,106.8749
131.6351,106.6395
131.4942,106.4127
131.3387,106.1953
131.1692,105.9880
130.9860,105.7916
130.7896,105.6068
130.5804,105.4344
130.3589,105.2752
130.1254,105.1298
123.4999,101.3045
123.3817,101.2336
123.2664,101.1592
123.1541,101.0812
123.0449,100.9999
122.9387,100.9153
122.8357,100.8276
122.7359,100.7367
122.6393,100.6428
122.5460,100.5460
122.4561,100.4464
122.3696,100.3441
122.2866,100.2391
122.2071,100.1316
122.1311,100.0217
122.0588,99.9094
121.9902,99.7949
121.9253,99.6782
121.8643,99.5594
121.8070,99.4387
121.7537,99.3161
121.7043,99.1917
121.6589,99.0656
121.6176,98.9379
121.5804,98.8088
121.5474,98.6782
121.5186,98.5463
121.4941,98.4132
121.4739,98.2790
121.4581,98.1437
121.4468,98.0075
121.4399,97.8704
121.4376,97.7326
121.4376,90.0821
121.4468,89.8073
121.4739,89.5358
121.5186,89.2685
121.5804,89.0060
121.6589,88.7491
121.7537,88.4987
121.8643,88.2554
121.9902,88.0199
122.1311,87.7931
122.2866,87.5757
122.4561,87.3684
122.6393,87.1720
122.8357,86.9872
123.0449,86.8148
123.2664,86.6556
123.4999,86.5103
130.1254,82.6850
130.2436,82.6141
130.3589,82.5397
130.4712,82.4617
130.5804,82.3804
130.6866,82.2958
130.7896,82.2081
130.8894,82.1172
130.9860,82.0233
131.0793,81.9265
131.1692,81.8269
131.2557,81.7246
131.3387,81.6196
131.4182,81.5121
131.4942,81.4022
131.5665,81.2899
131.6351,81.1754
131.7000,81.0587
131.7610,80.9399
131.8183,80.8192
131.8716,80.6966
131.9210,80.5722
131.9664,80.4461
132.0077,80.3184
132.0449,80.1893
132.0779,80.0587
132.1067,79.9268
132.1312,79.7937
132.1514,79.6595
132.1672,79.5242
132.1785,79.3880
132.1854,79.2509
132.1876,79.1131
132.1876,71.4626
132.1968,71.1878
132.2239,70.9163
132.2686,70.6490
132.3304,70.3865
132.4089,70.1296
132.5037,69.8792
132.6142,69.6359
132.7402,69.4004
132.8811,69.1736
133.0366,68.9562
133.2061,68.7489
133.3893,68.5525
133.5857,68.3677
133.7949,68.1953
134.0164,68.0361
134.2499,67.8907
140.8754,64.0654
141.1180,63.9359
141.3667,63.8237
141.6206,63.7287
141.8788,63.6510
142.1405,63.5906
142.4047,63.5474
142.6708,63.5215
142.9376,63.5128
143.2045,63.5215
143.4705,63.5474
143.7348,63.5906
143.9965,63.6510
144.2547,63.7287
144.5086,63.8237
144.7573,63.9359
144.9999,64.0654
151.6254,67.8907
151.8680,68.0203
152.1167,68.1325
152.3706,68.2275
152.6288,68.3052
152.8905,68.3656
153.1547,68.4088
153.4208,68.4347
153.6876,68.4433
153.9545,68.4347
154.2205,68.4088
154.4848,68.3656
154.7465,68.3052
155.0047,68.2275
155.2586,68.1325
155.5073,68.0203
155.7499,67.8907
162.3754,64.0654
162.6180,63.9359
162.8667,63.8237
163.1206,63.7287
163.3788,63.6510
163.6405,63.5906
163.9047,63.5474
164.1708,63.5215
164.4376,63.5128
164.7045,63.5215
164.9705,63.5474
165.2348,63.5906
165.4965,63.6510
165.7547,63.7287
166.0086,63.8237
166.2573,63.9359
166.4999,64.0654
173.1254,67.8907
173.3680,68.0203
173.6167,68.1325
173.8706,68.2275
174.1288,68.3052
174.3904,68.3656
174.6547,68.4088
174.9208,68.4347
175.1876,68.4433
175.4545,68.4347
175.7205,68.4088
175.9848,68.3656
176.2465,68.3052
176.5047,68.2275
176.7586,68.1325
177.0073,68.0203
177.2499,67.8907
183.8754,64.0654
184.1180,63.9359
184.3667,63.8237
184.6206,63.7287
184.8788,63.6510
185.1404,63.5906
185.4047,63.5474
185.6707,63.5215
185.9376,63.5128
186.2045,63.5215
186.4705,63.5474
186.7348,63.5906
186.9965,63.6510
187.2547,63.7287
187.5086,63.8237
187.7573,63.9359
187.9999,64.0654
194.6254,67.8907
194.7436,67.9616
194.8589,68.0361
194.9712,68.1140
195.0804,68.1953
195.1866,68.2799
195.2896,68.3677
195.3894,68.4586
195.4860,68.5525
195.5793,68.6493
195.6692,68.7489
195.7557,68.8512
195.8387,68.9562
195.9182,69.0637
195.9941,69.1736
196.0664,69.2859
196.1351,69.4004
196.1999,69.5171
196.2610,69.6359
196.3183,69.7566
196.3716,69.8792
196.4210,70.0036
196.4664,70.1296
196.5077,70.2573
196.5449,70.3865
196.5779,70.5171
196.6067,70.6490
196.6312,70.7821
196.6514,70.9163
196.6671,71.0516
196.6785,71.1878
196.6853,71.3248
196.6876,71.4626
196.6876,79.1131
196.6968,79.3880
196.7239,79.6595
196.7686,79.9268
196.8304,80.1893
196.9089,80.4461
197.0037,80.6966
197.1142,80.9399
197.2402,81.1754
197.3811,81.4022
197.5366,81.6196
197.7061,81.8269
197.8893,82.0233
198.0857,82.2081
198.2949,82.3804
198.5164,82.5397
198.7499,82.6850
205.3754,86.5103
216.1254,92.7168
216.3680,92.8463
216.6167,92.9585
216.8705,93.0535
217.1288,93.1312
217.3904,93.1916
217.6547,93.2348
217.9207,93.2607
218.1876,93.2693
218.4545,93.2607
218.7205,93.2348
218.9848,93.1916
219.2465,93.1312
219.5047,93.0535
219.7586,92.9585
220.0073,92.8463
220.2499,92.7168
226.8754,88.8915
237.6254,82.6850
237.7436,82.6141
237.8589,82.5397
237.9711,82.4617
238.0804,82.3804
238.1866,82.2958
238.2896,82.2081
238.3894,82.1172
238.4860,82.0233
238.5793,81.9265
238.6692,81.8269
238.7557,81.7246
238.8387,81.6196
238.9182,81.5121
238.9941,81.4022
239.0664,81.2899
239.1351,81.1754
239.1999,81.0587
239.2610,80.9399
239.3183,80.8192
239.3716,80.6966
239.4210,80.5722
239.4664,80.4461
239.5077,80.3184
239.5449,80.1893
239.5779,80.0587
239.6067,79.9268
239.6312,79.7937
239.6514,79.6595
239.6671,79.5242
239.6785,79.3880
239.6853,79.2509
239.6876,79.1131
239.6876,71.4626
239.6968,71.1878
239.7239,70.9163
239.7686,70.6490
239.8304,70.3865
239.9089,70.1296
240.0037,69.8792
240.1142,69.6359
240.2402,69.4004
240.3811,69.1736
240.5366,68.9562
240.7061,68.7489
240.8893,68.5525
241.0857,68.3677
241.2949,68.1953
241.5164,68.0361
241.7499,67.8907
248.3754,64.0654
248.6180,63.9359
248.8667,63.8237
249.1205,63.7287
249.3787,63.6510
249.6404,63.5906
249.9047,63.5474
250.1707,63.5215
250.4376,63.5128
250.7045,63.5215
250.9705,63.5474
251.2348,63.5906
251.4965,63.6510
251.7547,63.7287
252.0086,63.8237
252.2572,63.9359
252.4998,64.0654
259.1254,67.8907
259.3680,68.0203
259.6167,68.1325
259.8705,68.2275
260.1287,68.3052
260.3904,68.3656
260.6547,68.4088
260.9207,68.4347
261.1876,68.4433
261.4545,68.4347
261.7205,68.4088
261.9848,68.3656
262.2465,68.3052
262.5047,68.2275
262.7586,68.1325
263.0072,68.0203
263.2498,67.8907
269.8754,64.0654
270.1180,63.9359
270.3667,63.8237
270.6205,63.7287
270.8787,63.6510
271.1404,63.5906
271.4047,63.5474
271.6707,63.5215
271.9376,63.5128
272.2045,63.5215
272.4705,63.5474
272.7348,63.5906
272.9965,63.6510
273.2547,63.7287
273.5086,63.8237
273.7572,63.9359
273.9998,64.0654
280.6254,67.8907
280.8680,68.0203
281.1167,68.1325
281.3705,68.2275
281.6287,68.3052
281.8904,68.3656
282.1547,68.4088
282.4207,68.4347
282.6876,68.4433
282.9545,68.4347
283.2205,68.4088
283.4848,68.3656
283.7465,68.3052
284.0047,68.2275
284.2586,68.1325
284.5072,68.0203
284.7498,67.8907
291.3754,64.0654
291.6180,63.9359
291.8667,63.8237
292.1205,63.7287
292.3787,63.6510
292.6404,63.5906
292.9047,63.5474
293.1707,63.5215
293.4376,63.5128
Z" /> 
</g>
<g style="fill:none; 
stroke:#D0D2CD; stroke-width:0.0500; stroke-opacity:1; 
stroke-linecap:round; stroke-linejoin:round;">
<circle cx="185.9245" cy="137.3490" r="1.2100" /> 
<circle cx="250.4245" cy="137.3490" r="1.2273" /> 
<circle cx="293.4245" cy="87.6970" r="1.1764" /> 
<circle cx="239.6745" cy="106.3165" r="1.3050" /> 
<circle cx="196.6745" cy="106.3165" r="1.1341" /> 
<circle cx="142.9245" cy="75.2840" r="1.8452" /> 
<circle cx="142.9245" cy="87.6970" r="1.3008" /> 
<path style="fill:none; 
stroke:#D0D2CD; stroke-width:0.0500; stroke-opacity:1; 
stroke-linecap:round; stroke-linejoin:round;fill:none"
d="M 293.7045,63.5215
293.9705,63.5474
294.2348,63.5906
294.4965,63.6510
294.7547,63.7287
295.0086,63.8237
295.2572,63.9359
295.4998,64.0654
302.1254,67.8907
302.2436,67.9616
302.3588,68.0361
302.4711,68.1140
302.5804,68.1953
302.6866,68.2799
302.7896,68.3677
302.8894,68.4586
302.9860,68.5525
303.0792,68.6493
303.1692,68.7489
303.2557,68.8512
303.3387,68.9562
303.4182,69.0637
303.4941,69.1736
303.5664,69.2859
303.6350,69.4004
303.6999,69.5171
303.7610,69.6359
303.8183,69.7566
303.8716,69.8792
303.9210,70.0036
303.9663,70.1296
304.0077,70.2573
304.0448,70.3865
304.0779,70.5171
304.1067,70.6490
304.1312,70.7821
304.1513,70.9163
304.1671,71.0516
304.1785,71.1878
304.1853,71.3248
304.1876,71.4626
304.1876,79.1131
304.1968,79.3880
304.2239,79.6595
304.2686,79.9268
304.3304,80.1893
304.4089,80.4461
304.5036,80.6966
304.6142,80.9399
304.7402,81.1754
304.8811,81.4022
305.0366,81.6196
305.2061,81.8269
305.3893,82.0233
305.5857,82.2081
305.7948,82.3804
306.0164,82.5397
306.2498,82.6850
312.8754,86.5103
312.9936,86.5811
313.1089,86.6556
313.2211,86.7335
313.3304,86.8148
313.4366,86.8994
313.5396,86.9872
313.6394,87.0781
313.7360,87.1720
313.8293,87.2688
313.9192,87.3684
314.0057,87.4707
314.0887,87.5757
314.1682,87.6832
314.2441,87.7931
314.3164,87.9054
314.3851,88.0199
314.4499,88.1366
314.5110,88.2554
314.5683,88.3761
314.6216,88.4987
314.6710,88.6231
314.7164,88.7491
314.7577,88.8768
314.7949,89.0060
314.8279,89.1366
314.8567,89.2685
314.8812,89.4016
314.9014,89.5358
314.9171,89.6711
314.9285,89.8073
314.9353,89.9443
314.9376,90.0821
314.9376,97.7326
314.9285,98.0075
314.9014,98.2790
314.8567,98.5463
314.7949,98.8088
314.7164,99.0656
314.6216,99.3161
314.5110,99.5594
314.3851,99.7949
314.2441,100.0217
314.0887,100.2391
313.9192,100.4464
313.7360,100.6428
313.5396,100.8276
313.3304,100.9999
313.1089,101.1592
312.8754,101.3045
306.2498,105.1298
306.1317,105.2007
306.0164,105.2752
305.9041,105.3531
305.7948,105.4344
305.6887,105.5190
305.5857,105.6068
305.4858,105.6977
305.3893,105.7916
305.2960,105.8884
305.2061,105.9880
305.1196,106.0903
305.0366,106.1953
304.9570,106.3027
304.8811,106.4127
304.8088,106.5250
304.7402,106.6395
304.6753,106.7562
304.6142,106.8749
304.5570,106.9957
304.5036,107.1183
304.4543,107.2427
304.4089,107.3687
304.3676,107.4964
304.3304,107.6256
304.2974,107.7562
304.2686,107.8881
304.2441,108.0212
304.2239,108.1554
304.2081,108.2907
304.1968,108.4269
304.1899,108.5639
304.1876,108.7017
304.1876,116.3522
304.1785,116.6271
304.1513,116.8985
304.1067,117.1659
304.0448,117.4284
303.9663,117.6852
303.8716,117.9357
303.7610,118.1790
303.6350,118.4145
303.4941,118.6413
303.3387,118.8587
303.1692,119.0660
302.9860,119.2624
302.7896,119.4472
302.5804,119.6195
302.3588,119.7788
302.1254,119.9241
295.4998,123.7494
295.2572,123.8789
295.0086,123.9911
294.7547,124.0861
294.4965,124.1638
294.2348,124.2242
293.9705,124.2674
293.7045,124.2933
293.4376,124.3019
293.1707,124.2933
292.9047,124.2674
292.6404,124.2242
292.3788,124.1638
292.1205,124.0861
291.8667,123.9911
291.6180,123.8789
291.3754,123.7494
284.7498,119.9241
284.5072,119.7946
284.2586,119.6823
284.0047,119.5874
283.7465,119.5097
283.4848,119.4492
283.2205,119.4061
282.9545,119.3802
282.6876,119.3715
282.4207,119.3802
282.1547,119.4061
281.8904,119.4492
281.6288,119.5097
281.3705,119.5874
281.1167,119.6823
280.8680,119.7946
280.6254,119.9241
273.9998,123.7494
273.8816,123.8202
273.7664,123.8947
273.6541,123.9726
273.5448,124.0539
273.4387,124.1385
273.3356,124.2263
273.2358,124.3172
273.1393,124.4111
273.0460,124.5079
272.9561,124.6075
272.8696,124.7098
272.7865,124.8148
272.7070,124.9223
272.6311,125.0322
272.5588,125.1445
272.4902,125.2590
272.4253,125.3757
272.3642,125.4945
272.3070,125.6152
272.2536,125.7378
272.2043,125.8622
272.1589,125.9883
272.1176,126.1159
272.0804,126.2451
272.0474,126.3757
272.0186,126.5076
271.9941,126.6407
271.9739,126.7749
271.9581,126.9102
271.9468,127.0464
271.9399,127.1834
271.9376,127.3212
271.9376,134.9717
271.9285,135.2466
271.9013,135.5180
271.8567,135.7854
271.7948,136.0479
271.7163,136.3047
271.6216,136.5552
271.5110,136.7985
271.3850,137.0339
271.2441,137.2608
271.0887,137.4782
270.9192,137.6855
270.7360,137.8819
270.5396,138.0667
270.3304,138.2390
270.1088,138.3983
269.8754,138.5436
263.2498,142.3689
263.1316,142.4398
263.0164,142.5143
262.9041,142.5922
262.7948,142.6735
262.6887,142.7581
262.5856,142.8459
262.4858,142.9368
262.3892,143.0306
262.2960,143.1274
262.2061,143.2270
262.1196,143.3294
262.0365,143.4343
261.9570,143.5418
261.8811,143.6518
261.8088,143.7641
261.7402,143.8786
261.6753,143.9953
261.6142,144.1140
261.5570,144.2348
261.5036,144.3574
261.4542,144.4818
261.4089,144.6078
261.3676,144.7355
261.3304,144.8647
261.2974,144.9952
261.2686,145.1271
261.2441,145.2603
261.2239,145.3945
261.2081,145.5298
261.1967,145.6660
261.1899,145.8030
261.1876,145.9408
261.1876,147.3848
261.1876,153.5913
261.1785,153.8662
261.1513,154.1376
261.1067,154.4050
261.0448,154.6675
260.9663,154.9243
260.8716,155.1748
260.7610,155.4181
260.6350,155.6535
260.4941,155.8804
260.3387,156.0978
260.1692,156.3051
259.9860,156.5015
259.7896,156.6862
259.5804,156.8586
259.3588,157.0179
259.1254,157.1632
252.4998,160.9884
252.3816,161.0593
252.2664,161.1338
252.1541,161.2117
252.0448,161.2930
251.9387,161.3776
251.8356,161.4654
251.7358,161.5563
251.6392,161.6501
251.5460,161.7469
251.4561,161.8465
251.3696,161.9489
251.2865,162.0538
251.2070,162.1613
251.1311,162.2713
251.0588,162.3835
250.9902,162.4981
250.9253,162.6148
250.8642,162.7335
250.8070,162.8543
250.7536,162.9769
250.7042,163.1012
250.6589,163.2273
250.6176,163.3550
250.5804,163.4842
250.5474,163.6147
250.5186,163.7466
250.4940,163.8797
250.4739,164.0140
250.4581,164.1492
250.4467,164.2855
250.4399,164.4225
250.4376,164.5603
250.4376,172.2108
250.4285,172.4857
250.4013,172.7571
250.3566,173.0245
250.2948,173.2869
250.2163,173.5438
250.1216,173.7943
250.0110,174.0376
249.8850,174.2730
249.7441,174.4998
249.5887,174.7173
249.4191,174.9246
249.2360,175.1210
249.0396,175.3057
248.8304,175.4781
248.6088,175.6374
248.3754,175.7827
241.7498,179.6080
241.5072,179.7375
241.2586,179.8498
241.0047,179.9447
240.7465,180.0225
240.4848,180.0829
240.2205,180.1261
239.9545,180.1520
239.6876,180.1606
239.4207,180.1520
239.1547,180.1261
238.8904,180.0829
238.6287,180.0225
238.3705,179.9447
238.1167,179.8498
237.8680,179.7375
237.6254,179.6080
230.9998,175.7827
230.7572,175.6532
230.5086,175.5409
230.2547,175.4460
229.9965,175.3683
229.7348,175.3078
229.4705,175.2647
229.2045,175.2388
228.9376,175.2301
228.6707,175.2388
228.4047,175.2647
228.1404,175.3078
227.8787,175.3683
227.6205,175.4460
227.3667,175.5409
227.1180,175.6532
226.8754,175.7827
220.2498,179.6080
220.0072,179.7375
219.7586,179.8498
219.5047,179.9447
219.2465,180.0225
218.9848,180.0829
218.7205,180.1261
218.4545,180.1520
218.1876,180.1606
217.9207,180.1520
217.6547,180.1261
217.3904,180.0829
217.1287,180.0225
216.8705,179.9447
216.6167,179.8498
216.3680,179.7375
216.1254,179.6080
209.4998,175.7827
209.2572,175.6532
209.0086,175.5409
208.7547,175.4460
208.4965,175.3683
208.2348,175.3078
207.9705,175.2647
207.7045,175.2388
207.4376,175.2301
207.1707,175.2388
206.9047,175.2647
206.6404,175.3078
206.3787,175.3683
206.1205,175.4460
205.8667,175.5409
205.6180,175.6532
205.3754,175.7827
198.7498,179.6080
198.5072,179.7375
198.2586,179.8498
198.0047,179.9447
197.7465,180.0225
197.4848,180.0829
197.2205,180.1261
196.9545,180.1520
196.6876,180.1606
196.4207,180.1520
196.1547,180.1261
195.8904,180.0829
195.6287,180.0225
195.3705,179.9447
195.1167,179.8498
194.8680,179.7375
194.6254,179.6080
187.9998,175.7827
187.8816,175.7118
187.7664,175.6374
187.6541,175.5594
187.5448,175.4781
187.4387,175.3935
187.3357,175.3057
187.2358,175.2149
187.1393,175.1210
187.0460,175.0242
186.9561,174.9246
186.8696,174.8222
186.7865,174.7173
186.7070,174.6098
186.6311,174.4998
186.5588,174.3876
186.4902,174.2730
186.4253,174.1563
186.3642,174.0376
186.3070,173.9169
186.2536,173.7943
186.2043,173.6699
186.1589,173.5438
186.1176,173.4161
186.0804,173.2869
186.0474,173.1564
186.0186,173.0245
185.9941,172.8914
185.9739,172.7571
185.9581,172.6219
185.9468,172.4857
185.9399,172.3486
185.9376,172.2108
185.9376,164.5603
185.9285,164.2855
185.9014,164.0140
185.8567,163.7466
185.7949,163.4842
185.7164,163.2273
185.6216,162.9769
185.5110,162.7335
185.3851,162.4981
185.2441,162.2713
185.0887,162.0538
184.9192,161.8466
184.7360,161.6501
184.5396,161.4654
184.3304,161.2930
184.1089,161.1338
183.8754,160.9884
177.2499,157.1632
177.1317,157.0923
177.0164,157.0178
176.9041,156.9399
176.7949,156.8586
176.6887,156.7740
176.5857,156.6862
176.4859,156.5954
176.3893,156.5015
176.2960,156.4047
176.2061,156.3051
176.1196,156.2027
176.0366,156.0978
175.9571,155.9903
175.8811,155.8803
175.8088,155.7681
175.7402,155.6535
175.6753,155.5368
175.6142,155.4181
175.5570,155.2974
175.5037,155.1748
175.4543,155.0504
175.4089,154.9243
175.3676,154.7966
175.3304,154.6675
175.2974,154.5369
175.2686,154.4050
175.2441,154.2719
175.2239,154.1376
175.2081,154.0024
175.1968,153.8662
175.1899,153.7291
175.1876,153.5913
175.1876,145.9408
175.1785,145.6660
175.1514,145.3945
175.1067,145.1271
175.0449,144.8647
174.9664,144.6078
174.8716,144.3574
174.7610,144.1140
174.6351,143.8786
174.4941,143.6518
174.3387,143.4343
174.1692,143.2271
173.9860,143.0306
173.7896,142.8459
173.5804,142.6735
173.3589,142.5143
173.1254,142.3689
166.4999,138.5436
166.3817,138.4727
166.2664,138.3983
166.1541,138.3203
166.0449,138.2390
165.9387,138.1544
165.8357,138.0667
165.7359,137.9758
165.6393,137.8819
165.5460,137.7851
165.4561,137.6855
165.3696,137.5832
165.2866,137.4782
165.2071,137.3707
165.1311,137.2608
165.0588,137.1485
164.9902,137.0340
164.9253,136.9173
164.8642,136.7985
164.8070,136.6778
164.7537,136.5552
164.7043,136.4308
164.6589,136.3047
164.6176,136.1770
164.5804,136.0479
164.5474,135.9173
164.5186,135.7854
164.4941,135.6523
164.4739,135.5180
164.4581,135.3828
164.4468,135.2466
164.4399,135.1095
164.4376,134.9717
164.4376,127.3212
164.4285,127.0464
164.4014,126.7749
164.3567,126.5076
164.2949,126.2451
164.2164,125.9882
164.1216,125.7378
164.0110,125.4944
163.8851,125.2590
163.7441,125.0322
163.5887,124.8148
163.4192,124.6075
163.2360,124.4111
163.0396,124.2263
162.8304,124.0539
162.6089,123.8947
162.3754,123.7493
155.7499,119.9241
155.5073,119.7946
155.2586,119.6823
155.0047,119.5874
154.7465,119.5097
154.4848,119.4492
154.2205,119.4061
153.9545,119.3802
153.6876,119.3715
153.4208,119.3802
153.1547,119.4061
152.8905,119.4492
152.6288,119.5097
152.3706,119.5874
152.1167,119.6823
151.8680,119.7946
151.6254,119.9241
144.9999,123.7493
144.7573,123.8789
144.5086,123.9911
144.2547,124.0861
143.9965,124.1638
143.7348,124.2242
143.4705,124.2674
143.2045,124.2933
142.9376,124.3019
142.6708,124.2933
142.4047,124.2674
142.1405,124.2242
141.8788,124.1638
141.6206,124.0861
141.3667,123.9911
141.1180,123.8789
140.8754,123.7493
134.2499,119.9241
134.1317,119.8532
134.0164,119.7788
133.9041,119.7008
133.7949,119.6195
133.6887,119.5349
133.5857,119.4472
133.4859,119.3563
133.3893,119.2624
133.2960,119.1656
133.2061,119.0660
133.1196,118.9636
133.0366,118.8587
132.9571,118.7512
132.8811,118.6413
132.8088,118.5290
132.7402,118.4144
132.6753,118.2978
132.6142,118.1790
132.5570,118.0583
132.5037,117.9357
132.4543,117.8113
132.4089,117.6852
132.3676,117.5575
132.3304,117.4284
132.2974,117.2978
132.2686,117.1659
132.2441,117.0328
132.2239,116.8985
132.2081,116.7633
132.1968,116.6271
132.1899,116.4900
132.1876,116.3522
132.1876,108.7017
132.1785,108.4269
132.1514,108.1554
132.1067,107.8881
132.0449,107.6256
131.9664,107.3687
131.8716,107.1183
131.7610,106.8749
131.6351,106.6395
131.4942,106.4127
131.3387,106.1953
131.1692,105.9880
130.9860,105.7916
130.7896,105.6068
130.5804,105.4344
130.3589,105.2752
130.1254,105.1298
123.4999,101.3045
123.3817,101.2336
123.2664,101.1592
123.1541,101.0812
123.0449,100.9999
122.9387,100.9153
122.8357,100.8276
122.7359,100.7367
122.6393,100.6428
122.5460,100.5460
122.4561,100.4464
122.3696,100.3441
122.2866,100.2391
122.2071,100.1316
122.1311,100.0217
122.0588,99.9094
121.9902,99.7949
121.9253,99.6782
121.8643,99.5594
121.8070,99.4387
121.7537,99.3161
121.7043,99.1917
121.6589,99.0656
121.6176,98.9379
121.5804,98.8088
121.5474,98.6782
121.5186,98.5463
121.4941,98.4132
121.4739,98.2790
121.4581,98.1437
121.4468,98.0075
121.4399,97.8704
121.4376,97.7326
121.4376,90.0821
121.4468,89.8073
121.4739,89.5358
121.5186,89.2685
121.5804,89.0060
121.6589,88.7491
121.7537,88.4987
121.8643,88.2554
121.9902,88.0199
122.1311,87.7931
122.2866,87.5757
122.4561,87.3684
122.6393,87.1720
122.8357,86.9872
123.0449,86.8148
123.2664,86.6556
123.4999,86.5103
130.1254,82.6850
130.2436,82.6141
130.3589,82.5397
130.4712,82.4617
130.5804,82.3804
130.6866,82.2958
130.7896,82.2081
130.8894,82.1172
130.9860,82.0233
131.0793,81.9265
131.1692,81.8269
131.2557,81.7246
131.3387,81.6196
131.4182,81.5121
131.4942,81.4022
131.5665,81.2899
131.6351,81.1754
131.7000,81.0587
131.7610,80.9399
131.8183,80.8192
131.8716,80.6966
131.9210,80.5722
131.9664,80.4461
132.0077,80.3184
132.0449,80.1893
132.0779,80.0587
132.1067,79.9268
132.1312,79.7937
132.1514,79.6595
132.1672,79.5242
132.1785,79.3880
132.1854,79.2509
132.1876,79.1131
132.1876,71.4626
132.1968,71.1878
132.2239,70.9163
132.2686,70.6490
132.3304,70.3865
132.4089,70.1296
132.5037,69.8792
132.6142,69.6359
132.7402,69.4004
132.8811,69.1736
133.0366,68.9562
133.2061,68.7489
133.3893,68.5525
133.5857,68.3677
133.7949,68.1953
134.0164,68.0361
134.2499,67.8907
140.8754,64.0654
141.1180,63.9359
141.3667,63.8237
141.6206,63.7287
141.8788,63.6510
142.1405,63.5906
142.4047,63.5474
142.6708,63.5215
142.9376,63.5128
143.2045,63.5215
143.4705,63.5474
143.7348,63.5906
143.9965,63.6510
144.2547,63.7287
144.5086,63.8237
144.7573,63.9359
144.9999,64.0654
151.6254,67.8907
151.8680,68.0203
152.1167,68.1325
152.3706,68.2275
152.6288,68.3052
152.8905,68.3656
153.1547,68.4088
153.4208,68.4347
153.6876,68.4433
153.9545,68.4347
154.2205,68.4088
154.4848,68.3656
154.7465,68.3052
155.0047,68.2275
155.2586,68.1325
155.5073,68.0203
155.7499,67.8907
162.3754,64.0654
162.6180,63.9359
162.8667,63.8237
163.1206,63.7287
163.3788,63.6510
163.6405,63.5906
163.9047,63.5474
164.1708,63.5215
164.4376,63.5128
164.7045,63.5215
164.9705,63.5474
165.2348,63.5906
165.4965,63.6510
165.7547,63.7287
166.0086,63.8237
166.2573,63.9359
166.4999,64.0654
173.1254,67.8907
173.3680,68.0203
173.6167,68.1325
173.8706,68.2275
174.1288,68.3052
174.3904,68.3656
174.6547,68.4088
174.9208,68.4347
175.1876,68.4433
175.4545,68.4347
175.7205,68.4088
175.9848,68.3656
176.2465,68.3052
176.5047,68.2275
176.7586,68.1325
177.0073,68.0203
177.2499,67.8907
183.8754,64.0654
184.1180,63.9359
184.3667,63.8237
184.6206,63.7287
184.8788,63.6510
185.1404,63.5906
185.4047,63.5474
185.6707,63.5215
185.9376,63.5128
186.2045,63.5215
186.4705,63.5474
186.7348,63.5906
186.9965,63.6510
187.2547,63.7287
187.5086,63.8237
187.7573,63.9359
187.9999,64.0654
194.6254,67.8907
194.7436,67.9616
194.8589,68.0361
194.9712,68.1140
195.0804,68.1953
195.1866,68.2799
195.2896,68.3677
195.3894,68.4586
195.4860,68.5525
195.5793,68.6493
195.6692,68.7489
195.7557,68.8512
195.8387,68.9562
195.9182,69.0637
195.9941,69.1736
196.0664,69.2859
196.1351,69.4004
196.1999,69.5171
196.2610,69.6359
196.3183,69.7566
196.3716,69.8792
196.4210,70.0036
196.4664,70.1296
196.5077,70.2573
196.5449,70.3865
196.5779,70.5171
196.6067,70.6490
196.6312,70.7821
196.6514,70.9163
196.6671,71.0516
196.6785,71.1878
196.6853,71.3248
196.6876,71.4626
196.6876,79.1131
196.6968,79.3880
196.7239,79.6595
196.7686,79.9268
196.8304,80.1893
196.9089,80.4461
197.0037,80.6966
197.1142,80.9399
197.2402,81.1754
197.3811,81.4022
197.5366,81.6196
197.7061,81.8269
197.8893,82.0233
198.0857,82.2081
198.2949,82.3804
198.5164,82.5397
198.7499,82.6850
205.3754,86.5103
216.1254,92.7168
216.3680,92.8463
216.6167,92.9585
216.8705,93.0535
217.1288,93.1312
217.3904,93.1916
217.6547,93.2348
217.9207,93.2607
218.1876,93.2693
218.4545,93.2607
218.7205,93.2348
218.9848,93.1916
219.2465,93.1312
219.5047,93.0535
219.7586,92.9585
220.0073,92.8463
220.2499,92.7168
226.8754,88.8915
237.6254,82.6850
237.7436,82.6141
237.8589,82.5397
237.9711,82.4617
238.0804,82.3804
238.1866,82.2958
238.2896,82.2081
238.3894,82.1172
238.4860,82.0233
238.5793,81.9265
238.6692,81.8269
238.7557,81.7246
238.8387,81.6196
238.9182,81.5121
238.9941,81.4022
239.0664,81.2899
239.1351,81.1754
239.1999,81.0587
239.2610,80.9399
239.3183,80.8192
239.3716,80.6966
239.4210,80.5722
239.4664,80.4461
239.5077,80.3184
239.5449,80.1893
239.5779,80.0587
239.6067,79.9268
239.6312,79.7937
239.6514,79.6595
239.6671,79.5242
239.6785,79.3880
239.6853,79.2509
239.6876,79.1131
239.6876,71.4626
239.6968,71.1878
239.7239,70.9163
239.7686,70.6490
239.8304,70.3865
239.9089,70.1296
240.0037,69.8792
240.1142,69.6359
240.2402,69.4004
240.3811,69.1736
240.5366,68.9562
240.7061,68.7489
240.8893,68.5525
241.0857,68.3677
241.2949,68.1953
241.5164,68.0361
241.7499,67.8907
248.3754,64.0654
248.6180,63.9359
248.8667,63.8237
249.1205,63.7287
249.3787,63.6510
249.6404,63.5906
249.9047,63.5474
250.1707,63.5215
250.4376,63.5128
250.7045,63.5215
250.9705,63.5474
251.2348,63.5906
251.4965,63.6510
251.7547,63.7287
252.0086,63.8237
252.2572,63.9359
252.4998,64.0654
259.1254,67.8907
259.3680,68.0203
259.6167,68.1325
259.8705,68.2275
260.1287,68.3052
260.3904,68.3656
260.6547,68.4088
260.9207,68.4347
261.1876,68.4433
261.4545,68.4347
261.7205,68.4088
261.9848,68.3656
262.2465,68.3052
262.5047,68.2275
262.7586,68.1325
263.0072,68.0203
263.2498,67.8907
269.8754,64.0654
270.1180,63.9359
270.3667,63.8237
270.6205,63.7287
270.8787,63.6510
271.1404,63.5906
271.4047,63.5474
271.6707,63.5215
271.9376,63.5128
272.2045,63.5215
272.4705,63.5474
272.7348,63.5906
272.9965,63.6510
273.2547,63.7287
273.5086,63.8237
273.7572,63.9359
273.9998,64.0654
280.6254,67.8907
280.8680,68.0203
281.1167,68.1325
281.3705,68.2275
281.6287,68.3052
281.8904,68.3656
282.1547,68.4088
282.4207,68.4347
282.6876,68.4433
282.9545,68.4347
283.2205,68.4088
283.4848,68.3656
283.7465,68.3052
284.0047,68.2275
284.2586,68.1325
284.5072,68.0203
284.7498,67.8907
291.3754,64.0654
291.6180,63.9359
291.8667,63.8237
292.1205,63.7287
292.3787,63.6510
292.6404,63.5906
292.9047,63.5474
293.1707,63.5215
293.4376,63.5128
Z" /> 
</g> 
</svg>
